<svg width="220" height="94" viewBox="0 0 220 94" fill="none" xmlns="http://www.w3.org/2000/svg">
<path d="M87.4655 18.1041H71.7375V18.0758H65.0333C60.7053 18.0758 57.0562 18.6982 57.0562 15.3602C57.0562 14.5399 57.0279 12.6446 56.9714 10.4099H78.9792V0H21.3855H19.2639H13.4084C0.0282883 0 0 13.3801 0 13.3801V16.8877V27.0996V45.0623C0 47.7779 2.20644 50.0126 4.95034 50.0126H5.45952C8.20342 50.0126 10.4099 47.8062 10.4099 45.0623V28.7686H38.5844C41.3 28.7686 43.5347 26.5621 43.5347 23.8182V23.309C43.5347 20.5934 41.3283 18.3587 38.5844 18.3587H10.6927C10.6927 14.0307 10.0704 10.3816 13.4084 10.3816H46.6464V15.3319C46.6464 28.712 60.0264 28.7403 60.0264 28.7403H70.2949V28.7686H82.4586C86.7866 28.7686 90.4357 28.1462 90.4357 31.4842C90.4357 31.9934 90.464 32.8986 90.464 34.0301C90.4357 35.1616 90.4357 36.0668 90.4357 36.576C90.4357 39.9139 86.7866 39.5744 82.4586 39.5744H79.3186H75.7544H51.1441C48.4285 39.5744 46.1938 41.7809 46.1938 44.5248V45.034C46.1938 47.7496 48.4002 49.9843 51.1441 49.9843H73.746H79.3186H87.4655C87.4655 49.9843 100.28 49.956 100.817 37.368L100.846 37.3397V36.5477V31.4842V30.6921L100.817 30.6638C100.28 18.1324 87.4655 18.1041 87.4655 18.1041Z" fill="#fff"/>
<path d="M5.11975 70.776V75.9809H13.4929V79.6583H5.11975V88.2578H0.989746V67.042H14.9639V70.7477H5.11975V70.776Z" fill="#fff"/>
<path d="M28.9664 86.5603C28.0046 87.5787 26.4205 88.4556 24.1292 88.4556C21.8379 88.4556 20.2821 87.5504 19.3486 86.5603C17.9625 85.0893 17.5947 83.3355 17.5947 80.5067C17.5947 77.7063 17.9625 75.9524 19.3486 74.4815C20.3103 73.4631 21.8379 72.5862 24.1292 72.5862C26.4205 72.5862 28.0046 73.4914 28.9664 74.4815C30.3525 75.9524 30.7202 77.7063 30.7202 80.5067C30.7202 83.3638 30.3807 85.1176 28.9664 86.5603ZM25.9679 76.7728C25.5153 76.3202 24.9212 76.0939 24.1575 76.0939C23.3937 76.0939 22.8279 76.3202 22.3753 76.7728C21.5833 77.5648 21.4701 78.9226 21.4701 80.535C21.4701 82.1474 21.555 83.5052 22.3753 84.3256C22.8279 84.7782 23.3937 85.0045 24.1575 85.0045C24.9212 85.0045 25.5153 84.7782 25.9679 84.3256C26.7599 83.5335 26.8731 82.1474 26.8731 80.535C26.8448 78.9226 26.7599 77.5648 25.9679 76.7728Z" fill="#fff"/>
<path d="M42.8277 76.9991C42.2336 76.405 41.7245 76.0656 40.7627 76.0656C39.5746 76.0656 38.2734 76.9708 38.2734 78.9226V88.2859H34.3979V72.7559H38.1885V74.2552C38.924 73.3499 40.4232 72.5862 42.0922 72.5862C43.6197 72.5862 44.6947 72.9822 45.7413 74.0571L42.8277 76.9991Z" fill="#fff"/>
<path d="M63.5338 88.286H60.3373L57.0842 78.5551L53.8312 88.286H50.6347L45.8823 72.7561H49.984L52.4733 82.3456L55.6416 72.7561H58.4703L61.6668 82.3456L64.1562 72.7561H68.2296L63.5338 88.286Z" fill="#fff"/>
<path d="M78.4979 88.2859V86.9564C77.4512 88.003 76.4611 88.4556 74.679 88.4556C72.9252 88.4556 71.6522 88.003 70.7187 87.0978C69.8984 86.2209 69.4458 84.9762 69.4458 83.6184C69.4458 81.1574 71.1431 79.1207 74.7356 79.1207H78.3847V78.3569C78.3847 76.6597 77.5644 75.9242 75.4994 75.9242C74.0001 75.9242 73.3212 76.2919 72.5292 77.1971L70.0681 74.7927C71.5957 73.1237 73.0666 72.6428 75.6691 72.6428C80.0254 72.6428 82.2884 74.4815 82.2884 78.1306V88.3425H78.4979V88.2859ZM78.413 81.7515H75.3579C73.9718 81.7515 73.1798 82.4021 73.1798 83.5053C73.1798 84.5802 73.887 85.2874 75.4145 85.2874C76.4894 85.2874 77.1683 85.2025 77.8472 84.5519C78.2716 84.1559 78.413 83.5336 78.413 82.6001V81.7515Z" fill="#fff"/>
<path d="M94.8765 76.9991C94.2825 76.405 93.7733 76.0656 92.8115 76.0656C91.6234 76.0656 90.3222 76.9708 90.3222 78.9226V88.2859H86.4468V72.7559H90.2373V74.2552C90.9728 73.3499 92.472 72.5862 94.141 72.5862C95.6686 72.5862 96.7435 72.9822 97.7901 74.0571L94.8765 76.9991Z" fill="#fff"/>
<path d="M108.568 88.2859V86.8432C107.493 88.0313 106.362 88.4839 104.721 88.4839C103.193 88.4839 101.779 87.9464 100.902 87.0978C99.3462 85.542 99.3179 82.8829 99.3179 80.535C99.3179 78.2155 99.3462 75.5564 100.902 74.0006C101.779 73.1237 103.165 72.6145 104.693 72.6145C106.277 72.6145 107.465 73.0388 108.483 74.1703V67.0984H112.359V88.3142H108.568V88.2859ZM105.824 76.0939C103.504 76.0939 103.193 77.9892 103.193 80.535C103.193 83.0526 103.504 85.0045 105.824 85.0045C108.144 85.0045 108.483 83.0809 108.483 80.535C108.483 77.9892 108.144 76.0939 105.824 76.0939Z" fill="#fff"/>
<path d="M129.727 88.4839C126.503 88.4839 124.07 87.805 121.977 85.6834L124.664 82.9961C125.993 84.3256 127.832 84.7782 129.784 84.7782C132.217 84.7782 133.546 83.8447 133.546 82.1475C133.546 81.412 133.348 80.7897 132.896 80.3654C132.471 79.9693 131.99 79.7713 131.029 79.6299L128.454 79.2621C126.644 79.0076 125.286 78.4418 124.353 77.5083C123.334 76.4899 122.825 75.1321 122.825 73.35C122.825 69.5595 125.626 66.9287 130.208 66.9287C133.122 66.9287 135.243 67.6359 137.054 69.3897L134.423 71.9922C133.094 70.7193 131.481 70.5212 130.067 70.5212C127.86 70.5212 126.785 71.7376 126.785 73.2086C126.785 73.746 126.955 74.3118 127.408 74.7361C127.832 75.1321 128.511 75.4433 129.36 75.5565L131.849 75.9242C133.773 76.2071 135.017 76.7162 135.894 77.5649C137.026 78.6398 137.535 80.1956 137.535 82.0626C137.591 86.1643 134.169 88.4839 129.727 88.4839Z" fill="#fff"/>
<path d="M146.982 90.8034C146.643 91.6804 146.303 92.331 145.822 92.8119C144.917 93.7171 143.757 94 142.484 94H140.957V90.5206H141.862C142.965 90.5206 143.418 90.266 143.786 89.1345L144.436 87.2392L139.146 72.8125H143.22L146.445 82.402L149.556 72.8125H153.601L146.982 90.8034Z" fill="#fff"/>
<path d="M160.985 88.4839C158.552 88.4839 156.346 88.2293 154.366 86.2491L156.912 83.7315C158.185 85.0045 159.854 85.2025 161.042 85.2025C162.371 85.2025 163.786 84.7499 163.786 83.5901C163.786 82.8263 163.361 82.2889 162.145 82.1474L159.712 81.9211C156.912 81.6665 155.186 80.4219 155.186 77.5648C155.186 74.34 158.015 72.6145 161.183 72.6145C163.587 72.6145 165.624 73.0388 167.123 74.4249L164.747 76.8294C163.842 76.0373 162.484 75.7827 161.155 75.7827C159.599 75.7827 158.948 76.4899 158.948 77.282C158.948 77.8477 159.175 78.4983 160.561 78.6115L162.993 78.8378C166.049 79.1489 167.604 80.7613 167.604 83.3921C167.576 86.8432 164.662 88.4839 160.985 88.4839Z" fill="#fff"/>
<path d="M175.666 88.2861C172.498 88.2861 171.169 86.0514 171.169 83.845V76.1507H169.528V73.2088H171.169V68.6262H175.044V73.2088H177.788V76.1507H175.044V83.5904C175.044 84.4956 175.468 84.9765 176.373 84.9765H177.76V88.2579H175.666V88.2861Z" fill="#fff"/>
<path d="M184.322 81.7514C184.322 83.7598 185.539 85.2025 187.717 85.2025C189.414 85.2025 190.234 84.7216 191.224 83.7315L193.572 86.0228C191.988 87.6069 190.461 88.4556 187.688 88.4556C184.039 88.4556 180.503 86.7866 180.503 80.5067C180.503 75.4432 183.247 72.5862 187.264 72.5862C191.592 72.5862 194.025 75.7544 194.025 79.9975V81.7231H184.322V81.7514ZM189.867 77.4234C189.442 76.4899 188.594 75.811 187.264 75.811C185.963 75.811 185.086 76.4899 184.662 77.4234C184.435 77.9891 184.322 78.4134 184.294 79.0923H190.178C190.206 78.4134 190.093 77.9891 189.867 77.4234Z" fill="#fff"/>
<path d="M215.665 88.2859V78.9226C215.665 76.8011 214.335 76.0939 213.09 76.0939C211.902 76.0939 210.488 76.8011 210.488 78.8378V88.3141H206.613V78.9226C206.613 76.8011 205.283 76.0939 204.038 76.0939C202.822 76.0939 201.436 76.8011 201.436 78.9226V88.3141H197.561V72.7842H201.351V74.2269C202.369 73.1802 203.784 72.6145 205.226 72.6145C206.952 72.6145 208.366 73.2368 209.328 74.5663C210.629 73.2085 212.044 72.6145 213.967 72.6145C215.523 72.6145 216.909 73.1237 217.786 73.9723C219.031 75.217 219.483 76.6879 219.483 78.3852V88.3141H215.665V88.2859Z" fill="#fff"/>
<path d="M83.5615 10.2401V0L92.161 5.06349L83.5615 10.2401Z" fill="#fff"/>
<path d="M92.2446 10.2401V0L100.816 5.06349L92.2446 10.2401Z" fill="#fff"/>
</svg>
